# xmcd CD database file
#
# Track frame offsets:
#	150
#	12478
#	23340
#	33794
#	43892
#	55268
#	67189
#	78563
#	91789
#	104093
#	114308
#	128769
#	139482
#	150698
#	162877
#	174981
#	187787
#	200285
#	212704
#	224778
#	234261
#	246679
#	259423
#	270414
#	284055
#	296732
#	308430
#	318839
#
# Disc length: 4408 seconds
#
# Revision: 1
# Processed by: cddbd v1.5.2PL0 Copyright (c) Steve Scherf et al.
# Submitted via: CDex 1.40Beta9
#
DISCID=9c11361c
DTITLE=Various Artist - The Complete Motown Singles Volume 2 [CD9)
DYEAR=2005
DGENRE=R&B/Soul
TTITLE0=Mary Wells - You Beat Me To The Punch
TTITLE1=Mary Wells - Old Love (Let's Try It Again) [first pressing]
TTITLE2=Mary Wells - Old Love (Let's Try It Again) [second pressing]
TTITLE3=The Creations - This Is Our Night
TTITLE4=The Creations - You're My Inspiration
TTITLE5=Saundra Mallet and The Vandellas - Camel Walk
TTITLE6=Saundra Mallet and The Vandellas - It's Gonna Be Hard Times
TTITLE7=Marvin Gaye - Stubborn Kind Of Fellow
TTITLE8=Marvin Gaye - It Hurt Me Too
TTITLE9=Wright Specials - That's What He Is To Me
TTITLE10=Wright Specials - Pilgrim Of Sorrow
TTITLE11=Eddie Holland - If It's Love (It's Alright)
TTITLE12=Eddie Holland - It's Not Too Late
TTITLE13=The Miracles - If Your Mother Only Knew [first pressing]
TTITLE14=The Miracles - If Your Mother Only Knew [second pressing]
TTITLE15=Singin' Sammy Ward - Someday Pretty Baby
TTITLE16=Singin' Sammy Ward - Part Time Love
TTITLE17=Hattie Littles - Your Love Is Wonderful [first pressing]
TTITLE18=Hattie Littles - Here You Come
TTITLE19=The Charters - Trouble Lover
TTITLE20=The Charters - Show Me Some Sign
TTITLE21=Martha and The Vandellas - I'll Have To Let Him Go
TTITLE22=Martha and The Vandellas - My Baby Won't Come Back
TTITLE23=The Pirates - Mind Over Matter (I'm Gonna Make You Mine)
TTITLE24=The Pirates - I'll Love You Till I Die
TTITLE25=Little Stevie Wonder and Clarence Paul - Little Water Boy [promo version]
TTITLE26=Little Stevie Wonder - La La La La La
TTITLE27=Little Stevie Wonder and Clarence Paul - Little Water Boy [commercial version]
EXTD=YEAR: 2005
EXTT0=
EXTT1=
EXTT2=
EXTT3=
EXTT4=
EXTT5=
EXTT6=
EXTT7=
EXTT8=
EXTT9=
EXTT10=
EXTT11=
EXTT12=
EXTT13=
EXTT14=
EXTT15=
EXTT16=
EXTT17=
EXTT18=
EXTT19=
EXTT20=
EXTT21=
EXTT22=
EXTT23=
EXTT24=
EXTT25=
EXTT26=
EXTT27=
PLAYORDER=
